<?xml version="1.0" encoding="iso-8859-1"?>
<!-- Generator: Adobe Illustrator 19.0.0, SVG Export Plug-In . SVG Version: 6.00 Build 0)  -->
<svg xmlns="http://www.w3.org/2000/svg" xmlns:xlink="http://www.w3.org/1999/xlink" version="1.1" id="Capa_1" x="0px" y="0px" viewBox="0 0 512 512" style="enable-background:new 0 0 512 512;" xml:space="preserve" width="512px" height="512px">
<g>
	<g>
		<path d="M343.007,62.996H212.231c-5.523,0-10,4.477-10,10c0,5.523,4.477,10,10,10h130.776c5.523,0,10-4.477,10-10    C353.007,67.473,348.53,62.996,343.007,62.996z" fill="#FFFFFF"/>
	</g>
</g>
<g>
	<g>
		<path d="M110.832,65.926c-1.86-1.86-4.44-2.93-7.07-2.93s-5.21,1.07-7.07,2.93c-1.86,1.86-2.93,4.44-2.93,7.07    c0,2.63,1.07,5.21,2.93,7.07c1.86,1.86,4.44,2.93,7.07,2.93s5.21-1.07,7.07-2.93c1.86-1.86,2.93-4.44,2.93-7.07    C113.762,70.367,112.692,67.786,110.832,65.926z" fill="#FFFFFF"/>
	</g>
</g>
<g>
	<g>
		<path d="M74.081,65.926c-1.86-1.86-4.43-2.93-7.07-2.93c-2.63,0-5.21,1.07-7.07,2.93c-1.86,1.86-2.93,4.44-2.93,7.07    c0,2.63,1.07,5.21,2.93,7.07c1.86,1.86,4.44,2.93,7.07,2.93c2.64,0,5.21-1.07,7.07-2.93c1.87-1.86,2.93-4.44,2.93-7.07    C77.012,70.367,75.951,67.786,74.081,65.926z" fill="#FFFFFF"/>
	</g>
</g>
<g>
	<g>
		<path d="M147.583,65.926c-1.86-1.86-4.44-2.93-7.07-2.93s-5.21,1.07-7.07,2.93c-1.86,1.86-2.93,4.44-2.93,7.07    c0,2.63,1.07,5.21,2.93,7.07c1.86,1.86,4.44,2.93,7.07,2.93s5.21-1.07,7.07-2.93c1.86-1.86,2.93-4.44,2.93-7.07    C150.513,70.367,149.443,67.786,147.583,65.926z" fill="#FFFFFF"/>
	</g>
</g>
<g>
	<g>
		<path d="M384.578,193.929c-1.86-1.86-4.44-2.93-7.07-2.93s-5.21,1.07-7.07,2.93c-1.86,1.86-2.93,4.44-2.93,7.07    c0,2.63,1.07,5.21,2.93,7.07c1.86,1.86,4.44,2.93,7.07,2.93s5.21-1.07,7.07-2.93c1.86-1.86,2.93-4.44,2.93-7.07    C387.508,198.369,386.438,195.789,384.578,193.929z" fill="#FFFFFF"/>
	</g>
</g>
<g>
	<g>
		<path d="M335.119,190.999H194.712c-5.523,0-10,4.477-10,10c0,5.523,4.477,10,10,10h140.407c5.523,0,10-4.477,10-10    C345.119,195.476,340.642,190.999,335.119,190.999z" fill="#FFFFFF"/>
	</g>
</g>
<g>
	<g>
		<path d="M335.119,247H194.712c-5.523,0-10,4.477-10,10c0,5.523,4.477,10,10,10h140.407c5.523,0,10-4.477,10-10    C345.119,251.477,340.642,247,335.119,247z" fill="#FFFFFF"/>
	</g>
</g>
<g>
	<g>
		<path d="M140.003,257H74.001v-66.001c0-5.523-4.477-10-10-10c-5.523,0-10,4.477-10,10V267c0,5.523,4.477,10,10,10h76.001    c5.523,0,10-4.477,10-10C150.003,261.477,145.526,257,140.003,257z" fill="#FFFFFF"/>
	</g>
</g>
<g>
	<g>
		<path d="M289.773,344.163h-55.268c-5.523,0-10,4.477-10,10c0,5.523,4.477,10,10,10h55.268c5.523,0,10-4.477,10-10    C299.773,348.64,295.296,344.163,289.773,344.163z" fill="#FFFFFF"/>
	</g>
</g>
<g>
	<g>
		<path d="M201.784,347.092c-1.86-1.86-4.44-2.93-7.07-2.93c-2.64,0-5.21,1.07-7.07,2.93c-1.86,1.86-2.93,4.44-2.93,7.07    s1.07,5.21,2.93,7.07s4.44,2.93,7.07,2.93s5.21-1.07,7.07-2.93c1.86-1.86,2.93-4.44,2.93-7.07S203.644,348.952,201.784,347.092z" fill="#FFFFFF"/>
	</g>
</g>
<g>
	<g>
		<path d="M289.773,400.164h-95.061c-5.523,0-10,4.477-10,10c0,5.523,4.477,10,10,10h95.061c5.523,0,10-4.477,10-10    C299.773,404.641,295.296,400.164,289.773,400.164z" fill="#FFFFFF"/>
	</g>
</g>
<g>
	<g>
		<path d="M140.003,334.163H64.001c-5.523,0-10,4.477-10,10v76.002c0,5.523,4.477,10,10,10h76.001c5.523,0,10-4.477,10-10v-76.002    C150.003,338.64,145.526,334.163,140.003,334.163z M130.003,410.164H74.001v-56.001h56.001V410.164z" fill="#FFFFFF"/>
	</g>
</g>
<g>
	<g>
		<path d="M496.132,201.999l-31.611-18.25c-15.162-8.754-34.618-3.54-43.372,11.621l-94.69,164.007    c-0.974,1.688-1.435,3.623-1.324,5.568l4.141,72.829c0.191,3.365,2.065,6.407,4.984,8.092c1.544,0.892,3.271,1.34,5,1.34    c1.54,0,3.082-0.355,4.5-1.07l65.142-32.829c1.74-0.877,3.186-2.243,4.16-3.93l94.69-164.007    C516.506,230.21,511.293,210.752,496.132,201.999z M348.379,421.413l-2.225-39.118l37.214,21.485L348.379,421.413z     M400.742,390.719l-51.963-30.001l67.501-116.916l51.963,30.001L400.742,390.719z M490.432,235.371l-12.188,21.11l-51.963-30.001    l12.188-21.11c3.239-5.611,10.44-7.541,16.051-4.301l31.611,18.25C491.742,222.559,493.672,229.76,490.432,235.371z" fill="#FFFFFF"/>
	</g>
</g>
<g>
	<g>
		<path d="M153.63,187.707c-3.905-3.904-10.237-3.904-14.143,0l-26.157,26.158l-9.543-9.543c-3.905-3.905-10.237-3.905-14.142,0    s-3.905,10.237,0,14.142l16.614,16.614c1.953,1.953,4.512,2.929,7.071,2.929c2.559,0,5.119-0.977,7.071-2.929l33.229-33.229    C157.535,197.944,157.535,191.612,153.63,187.707z" fill="#FFFFFF"/>
	</g>
</g>
<g>
	<g>
		<path d="M462.009,158.998c5.523,0,10-4.477,10-10v-38.462c0-2.652-1.054-5.196-2.929-7.071l-73.54-73.54    c-1.875-1.875-4.419-2.929-7.071-2.929H10c-5.523,0-10,4.477-10,10v438.009c0,5.523,4.477,10,10,10h452.009    c5.523,0,10-4.477,10-10v-70.626c0-5.522-4.477-9.999-10-9.999s-10,4.477-10,10v60.626H20v-202.81    c0.001-0.065,0.01-0.13,0.01-0.195s-0.008-0.13-0.01-0.195V118.997h323.006c5.523,0,10-4.477,10-10s-4.477-10-10-10H20V46.996    h358.468v63.54c0,5.523,4.477,10,10,10h63.54v28.462C452.009,154.521,456.486,158.998,462.009,158.998z M398.469,100.536V61.138    l39.398,39.398H398.469z" fill="#FFFFFF"/>
	</g>
</g>
<g>
</g>
<g>
</g>
<g>
</g>
<g>
</g>
<g>
</g>
<g>
</g>
<g>
</g>
<g>
</g>
<g>
</g>
<g>
</g>
<g>
</g>
<g>
</g>
<g>
</g>
<g>
</g>
<g>
</g>
</svg>
