<?xml version="1.0" encoding="iso-8859-1"?>
<!-- Generator: Adobe Illustrator 19.0.0, SVG Export Plug-In . SVG Version: 6.00 Build 0)  -->
<svg xmlns="http://www.w3.org/2000/svg" xmlns:xlink="http://www.w3.org/1999/xlink" version="1.1" id="Capa_1" x="0px" y="0px" viewBox="0 0 512 512" style="enable-background:new 0 0 512 512;" xml:space="preserve" width="512px" height="512px">
<g>
	<g>
		<path d="M512,300V28c0-15.439-12.561-28-28-28H28C12.561,0,0,12.561,0,28v272c0,15.439,12.561,28,28,28h42.488    c-17.721,8.17-30.058,26.091-30.058,46.851v10.844c0,11.589,3.844,22.295,10.322,30.916l-24.893,8.249    C10.392,429.985,0,444.376,0,460.671V502c0,5.523,4.477,10,10,10h164h164h164c5.523,0,10-4.477,10-10v-41.329    c0-16.294-10.392-30.686-25.86-35.812l-24.893-8.249c6.478-8.621,10.322-19.327,10.322-30.916V374.85    c0-20.759-12.336-38.681-30.057-46.851H484C499.439,328,512,315.439,512,300z M60.428,374.851h0.002    c0-17.408,14.162-31.57,31.57-31.57c17.407,0,31.569,14.162,31.569,31.57v10.844c0,10.874-5.527,20.482-13.919,26.162    c-0.586,0.292-1.144,0.642-1.664,1.044c-4.693,2.768-10.156,4.364-15.987,4.364s-11.293-1.595-15.986-4.363    c-0.521-0.403-1.079-0.753-1.667-1.046c-8.391-5.68-13.918-15.287-13.918-26.161V374.851z M163.999,492H20v-31.329    c0-7.656,4.883-14.418,12.15-16.827l36.614-12.133c6.988,3.543,14.879,5.553,23.235,5.553c8.356,0,16.247-2.01,23.235-5.553    l36.614,12.133c7.268,2.409,12.151,9.171,12.151,16.827V492z M174,435.073c-4.234-4.584-9.635-8.15-15.86-10.213l-24.893-8.249    c6.478-8.621,10.322-19.327,10.322-30.916v-10.844c0-20.759-12.336-38.681-30.057-46.851h120.976    c-17.721,8.17-30.058,26.091-30.058,46.851v10.844c0,11.589,3.844,22.295,10.322,30.916l-24.893,8.249    C183.634,426.923,178.234,430.488,174,435.073z M256,343.281c17.407,0,31.569,14.162,31.569,31.57v10.844    c0,10.874-5.527,20.482-13.919,26.162c-0.586,0.292-1.144,0.642-1.664,1.044c-4.692,2.768-10.155,4.363-15.986,4.363    s-11.293-1.595-15.986-4.363c-0.521-0.403-1.079-0.753-1.666-1.045c-8.392-5.68-13.918-15.287-13.918-26.161v-10.844    C224.43,357.443,238.592,343.281,256,343.281z M327.999,492H184v-31.329c0-7.656,4.883-14.418,12.15-16.827l36.614-12.133    c6.988,3.543,14.879,5.553,23.235,5.553c8.356,0,16.247-2.01,23.235-5.553l36.614,12.133c7.268,2.409,12.151,9.171,12.151,16.827    V492z M338,435.073c-4.234-4.584-9.635-8.15-15.86-10.213l-24.893-8.249c6.478-8.621,10.322-19.327,10.322-30.916v-10.844    c0-20.759-12.336-38.681-30.057-46.851h120.976c-17.721,8.17-30.058,26.091-30.058,46.851v10.844    c0,11.589,3.844,22.295,10.322,30.916l-24.893,8.249C347.634,426.923,342.234,430.488,338,435.073z M479.848,443.844    c7.269,2.408,12.152,9.171,12.152,16.827V492H348v-31.329c0-7.656,4.883-14.418,12.15-16.827l36.614-12.133    c6.988,3.543,14.879,5.553,23.235,5.553c8.356,0,16.247-2.01,23.235-5.553L479.848,443.844z M451.569,374.851v10.844    c0,10.875-5.527,20.482-13.92,26.162c-0.585,0.292-1.142,0.641-1.662,1.043c-4.693,2.768-10.156,4.364-15.988,4.364    c-5.831,0-11.293-1.595-15.985-4.363c-0.521-0.403-1.08-0.753-1.667-1.046c-8.391-5.68-13.917-15.287-13.917-26.161V374.85    c0-17.408,14.162-31.57,31.57-31.57C437.407,343.281,451.569,357.443,451.569,374.851z M74.013,308V94c0-5.523-4.477-10-10-10    s-10,4.477-10,10v214H28c-4.411,0-8-3.589-8-8V28c0-4.411,3.589-8,8-8h410.013v220.5c0,5.523,4.477,10,10,10s10-4.477,10-10V20    H484c4.411,0,8,3.589,8,8v272c0,4.411-3.589,8-8,8H74.013z" fill="#ffffff"/>
	</g>
</g>
<g>
	<g>
		<path d="M303.762,145.787l-52.186-33.449c-6.662-4.27-15.111-4.563-22.053-0.768c-6.941,3.796-11.254,11.069-11.254,18.98v66.899    c0,7.912,4.313,15.185,11.254,18.981c3.243,1.773,6.814,2.653,10.379,2.653c4.067,0,8.125-1.146,11.674-3.421l52.186-33.449    c6.236-3.997,9.959-10.806,9.959-18.213C313.721,156.593,309.998,149.784,303.762,145.787z M292.97,165.374l-52.186,33.449    c-0.201,0.129-0.814,0.523-1.665,0.058c-0.85-0.465-0.85-1.193-0.85-1.433V130.55c0-0.239,0-0.968,0.85-1.433    c0.298-0.163,0.568-0.221,0.801-0.221c0.429,0,0.733,0.195,0.864,0.279l52.186,33.449c0.499,0.32,0.752,0.782,0.752,1.375    S293.469,165.054,292.97,165.374z" fill="#ffffff"/>
	</g>
</g>
<g>
	<g>
		<path d="M256.013,54c-60.654,0-110,49.346-110,110s49.346,110,110,110s110-49.346,110-110S316.667,54,256.013,54z M256.013,254    c-49.626,0-90-40.374-90-90c0-49.626,40.374-90,90-90c49.626,0,90,40.374,90,90S305.639,254,256.013,254z" fill="#ffffff"/>
	</g>
</g>
<g>
	<g>
		<path d="M455.083,270.63c-1.86-1.86-4.44-2.93-7.07-2.93s-5.21,1.07-7.07,2.93c-1.86,1.86-2.93,4.44-2.93,7.07    s1.07,5.21,2.93,7.07c1.86,1.86,4.44,2.93,7.07,2.93s5.21-1.07,7.07-2.93s2.93-4.44,2.93-7.07S456.943,272.49,455.083,270.63z" fill="#ffffff"/>
	</g>
</g>
<g>
	<g>
		<path d="M71.083,47.93c-1.86-1.86-4.44-2.93-7.07-2.93s-5.21,1.07-7.07,2.93s-2.93,4.44-2.93,7.07s1.07,5.21,2.93,7.07    s4.44,2.93,7.07,2.93s5.21-1.07,7.07-2.93s2.93-4.44,2.93-7.07S72.943,49.79,71.083,47.93z" fill="#ffffff"/>
	</g>
</g>
<g>
</g>
<g>
</g>
<g>
</g>
<g>
</g>
<g>
</g>
<g>
</g>
<g>
</g>
<g>
</g>
<g>
</g>
<g>
</g>
<g>
</g>
<g>
</g>
<g>
</g>
<g>
</g>
<g>
</g>
</svg>
